<?xml version="1.0" encoding="utf-8"?>
<!-- Generator: Adobe Illustrator 19.1.0, SVG Export Plug-In . SVG Version: 6.00 Build 0)  -->
<svg version="1.1" id="Chevron_thin_right" xmlns="http://www.w3.org/2000/svg" xmlns:xlink="http://www.w3.org/1999/xlink" x="0px"
	 y="0px" viewBox="-311.4 187.4 17.3 20" style="enable-background:new -311.4 187.4 17.3 20;" xml:space="preserve">
<g>
	<g>
		<path d="M-294.8,193.1h-15.9c-0.4,0-0.7,0.3-0.7,0.7v1.4c0,0.4,0.3,0.7,0.7,0.7h15.9c0.4,0,0.7-0.3,0.7-0.7v-1.4
			C-294.1,193.4-294.4,193.1-294.8,193.1z M-294.8,187.4h-15.9c-0.4,0-0.7,0.3-0.7,0.7v1.4c0,0.4,0.3,0.7,0.7,0.7h15.9
			c0.4,0,0.7-0.3,0.7-0.7v-1.4C-294.1,187.7-294.4,187.4-294.8,187.4z M-294.8,198.8h-15.9c-0.4,0-0.7,0.3-0.7,0.7v1.4
			c0,0.4,0.3,0.7,0.7,0.7h5.6c0.7-0.6,1.6-1,2.6-1c0.9,0,1.7,0.3,2.4,0.8c0.1-0.4,0.5-0.7,0.9-0.7h1.2c0.3,0,0.6,0.1,0.8,0.4
			l0.3,0.4h0.6c0.1-0.5,0.5-0.8,1-0.8h1.2v-1.3C-294.1,199.1-294.4,198.8-294.8,198.8z M-306.4,204.6
			C-306.4,204.6-306.4,204.5-306.4,204.6l-4.2,0c-0.4,0-0.7,0.3-0.7,0.7v1.4c0,0.4,0.3,0.7,0.7,0.7h5.5c0,0-0.1-0.1-0.1-0.1
			C-306,206.6-306.4,205.6-306.4,204.6z M-302.5,201.7c-0.8,0-1.5,0.3-2.1,0.8c-0.6,0.5-0.8,1.2-0.8,2c0,0.8,0.3,1.5,0.8,2
			c0.6,0.5,1.2,0.8,2.1,0.8c0.8,0,1.5-0.3,2.1-0.8c0.6-0.5,0.8-1.2,0.8-2c0-0.8-0.3-1.5-0.8-2C-301,202-301.7,201.7-302.5,201.7z
			 M-301.3,205.8c-0.3,0.3-0.7,0.5-1.2,0.5c-0.5,0-0.9-0.2-1.2-0.5c-0.3-0.3-0.5-0.8-0.5-1.2c0-0.5,0.2-0.9,0.5-1.3
			c0.3-0.3,0.7-0.5,1.2-0.5c0.5,0,0.9,0.2,1.2,0.5c0.3,0.3,0.5,0.8,0.5,1.3C-300.8,205.1-301,205.5-301.3,205.8z M-295.3,205.4
			l-2.7-3.5h-1.2v5.5h1.2v-3.4l2.6,3.4h1.2v-5.5h-1.2V205.4z"/>
	</g>
</g>
</svg>
