<?xml version="1.0" encoding="utf-8"?>
<!-- Generator: Adobe Illustrator 19.1.0, SVG Export Plug-In . SVG Version: 6.00 Build 0)  -->
<svg version="1.1" id="Chevron_thin_right" xmlns="http://www.w3.org/2000/svg" xmlns:xlink="http://www.w3.org/1999/xlink" x="0px"
	 y="0px" viewBox="-780.3 375.5 13.6 27.7" style="enable-background:new -780.3 375.5 13.6 27.7;" xml:space="preserve">
<style type="text/css">
	.st0{fill:#DC2E62;}
	.st1{fill:#DCDCDC;}
</style>
<path class="st0" d="M-775.2,389.3c-0.4,0-0.9-0.2-1.1-0.5l-3.6-4.7c-0.5-0.6-0.4-1.5,0.3-1.9c0.6-0.5,1.5-0.3,2,0.3l2.4,3.1l6-9.4
	c0.4-0.6,1.3-0.8,2-0.4c0.7,0.4,0.9,1.3,0.5,1.9l-7.1,11.1C-774.3,389.1-774.7,389.3-775.2,389.3
	C-775.2,389.3-775.2,389.3-775.2,389.3z"/>
<path class="st1" d="M-775.2,403.2c-0.4,0-0.9-0.2-1.1-0.5l-3.6-4.7c-0.5-0.6-0.4-1.5,0.3-1.9c0.6-0.5,1.5-0.3,2,0.3l2.4,3.1l6-9.4
	c0.4-0.6,1.3-0.8,2-0.4c0.7,0.4,0.9,1.3,0.5,1.9l-7.1,11.1C-774.3,402.9-774.7,403.1-775.2,403.2
	C-775.2,403.2-775.2,403.2-775.2,403.2z"/>
</svg>
