<?xml version="1.0" encoding="utf-8"?>
<!-- Generator: Adobe Illustrator 19.1.0, SVG Export Plug-In . SVG Version: 6.00 Build 0)  -->
<svg version="1.1" id="Chevron_thin_right" xmlns="http://www.w3.org/2000/svg" xmlns:xlink="http://www.w3.org/1999/xlink" x="0px"
	 y="0px" viewBox="-782.1 373.2 17.2 18.5" style="enable-background:new -782.1 373.2 17.2 18.5;" xml:space="preserve">
<style type="text/css">
	.st0{fill:#FFFFFF;}
</style>
<path d="M-773.5,380.5l7.4-7.1c0.3-0.3,0.7-0.3,1,0c0.3,0.3,0.3,0.7,0,1l-7.9,7.8c-0.3,0.3-0.7,0.3-1,0l-7.9-7.8
	c-0.3-0.3-0.3-0.7,0-1c0.3-0.3,0.7-0.3,1,0L-773.5,380.5z"/>
<path class="st0" d="M-773.5,389.8l7.4-7.1c0.3-0.3,0.7-0.3,1,0c0.3,0.3,0.3,0.7,0,1l-7.9,7.8c-0.3,0.3-0.7,0.3-1,0l-7.9-7.8
	c-0.3-0.3-0.3-0.7,0-1c0.3-0.3,0.7-0.3,1,0L-773.5,389.8z"/>
</svg>
