<?xml version="1.0" encoding="utf-8"?>
<!-- Generator: Adobe Illustrator 19.1.0, SVG Export Plug-In . SVG Version: 6.00 Build 0)  -->
<svg version="1.1" id="Chevron_thin_right" xmlns="http://www.w3.org/2000/svg" xmlns:xlink="http://www.w3.org/1999/xlink" x="0px"
	 y="0px" viewBox="-286.7 211 17 20" style="enable-background:new -286.7 211 17 20;" xml:space="preserve">
<g>
	<g>
		<path d="M-270.4,211H-286c-0.4,0-0.7,0.3-0.7,0.7v1.4c0,0.4,0.3,0.7,0.7,0.7h15.6c0.4,0,0.7-0.3,0.7-0.7v-1.4
			C-269.7,211.3-270.1,211-270.4,211z M-285.2,228.2C-285.2,228.2-285.2,228.2-285.2,228.2l-0.8,0c-0.4,0-0.7,0.3-0.7,0.7v1.4
			c0,0.4,0.3,0.7,0.7,0.7h2.1c0,0-0.1-0.1-0.1-0.1C-284.8,230.2-285.2,229.2-285.2,228.2z M-270.4,222.4H-286
			c-0.4,0-0.7,0.3-0.7,0.7v1.4c0,0.4,0.3,0.7,0.7,0.7h2.1c0.7-0.6,1.6-1,2.5-1c0.9,0,1.8,0.3,2.5,0.9c0.1-0.4,0.5-0.8,1-0.8h3.7
			c0.1,0,0.2,0,0.4,0.1c0.1,0,0.2-0.1,0.4-0.1h3.7v-1.3C-269.7,222.8-270.1,222.4-270.4,222.4z M-270.4,216.7H-286
			c-0.4,0-0.7,0.3-0.7,0.7v1.4c0,0.4,0.3,0.7,0.7,0.7h15.6c0.4,0,0.7-0.3,0.7-0.7v-1.4C-269.7,217-270.1,216.7-270.4,216.7z
			 M-281.3,225.3c-0.8,0-1.5,0.3-2,0.8c-0.5,0.5-0.8,1.2-0.8,2c0,0.8,0.3,1.5,0.8,2c0.5,0.5,1.2,0.8,2,0.8c0.8,0,1.5-0.3,2-0.8
			c0.5-0.5,0.8-1.2,0.8-2c0-0.8-0.3-1.5-0.8-2C-279.9,225.6-280.5,225.3-281.3,225.3z M-280.2,229.4c-0.3,0.3-0.7,0.5-1.1,0.5
			c-0.5,0-0.8-0.2-1.1-0.5c-0.3-0.3-0.5-0.8-0.5-1.2c0-0.5,0.2-0.9,0.5-1.3c0.3-0.3,0.7-0.5,1.1-0.5c0.5,0,0.8,0.2,1.1,0.5
			c0.3,0.3,0.5,0.8,0.5,1.3C-279.7,228.7-279.9,229.1-280.2,229.4z M-277.9,230.9h1.2v-2.2h2.4v-1.1h-2.4v-1.2h2.5v-1.1h-3.7V230.9z
			 M-273.5,230.9h1.2v-2.2h2.4v-1.1h-2.4v-1.2h2.5v-1.1h-3.7V230.9z"/>
	</g>
</g>
</svg>
