<?xml version="1.0" encoding="utf-8"?>
<!-- Generator: Adobe Illustrator 19.1.0, SVG Export Plug-In . SVG Version: 6.00 Build 0)  -->
<svg version="1.1" id="レイヤー_1" xmlns="http://www.w3.org/2000/svg" xmlns:xlink="http://www.w3.org/1999/xlink" x="0px"
	 y="0px" viewBox="-1407.1 806.7 22 35.9" style="enable-background:new -1407.1 806.7 22 35.9;" xml:space="preserve">
<style type="text/css">
	.st0{opacity:0.3;}
	.st1{fill:#040000;}
	.st2{fill:#FFFFFF;}
	.st3{fill:#F19EC2;}
</style>
<g class="st0">
	<path class="st1" d="M-1404.7,816.4c-1.2-1-1.8-2.4-1.8-3.8c0-1.5,0.6-2.9,1.8-4c1-0.9,2.4-1.4,3.9-1.4s2.8,0.5,3.9,1.4l0.9,0.9
		l1-0.9c1-0.9,2.4-1.4,3.9-1.4s2.8,0.5,3.9,1.4c1.1,1,1.8,2.4,1.8,3.9s-0.6,2.9-1.8,3.9l-8.8,7.9L-1404.7,816.4z"/>
	<path class="st2" d="M-1391.2,807.7c1.3,0,2.6,0.4,3.5,1.3c2.1,1.9,2.1,5.2,0,7.1l-8.4,7.6l-8.3-7.6c-2.2-1.9-2.2-5.1,0-7.1
		c1-0.9,2.2-1.3,3.5-1.3c1.3,0,2.6,0.4,3.5,1.3l1.3,1.2l1.4-1.2C-1393.7,808.1-1392.4,807.7-1391.2,807.7 M-1391.2,806.7
		c-1.6,0-3.1,0.6-4.2,1.6l-0.7,0.6l-0.6-0.6c-1.1-1-2.6-1.6-4.2-1.6c-1.6,0-3.1,0.6-4.2,1.6c-1.3,1.2-2,2.8-2,4.4
		c0,1.6,0.7,3.1,2,4.2l8.3,7.6l0.7,0.6l0.7-0.6l8.4-7.6c1.2-1.1,1.9-2.7,1.9-4.3s-0.7-3.2-1.9-4.3
		C-1388.1,807.2-1389.6,806.7-1391.2,806.7L-1391.2,806.7z"/>
</g>
<g>
	<path class="st3" d="M-1387.6,826.9c-1.9-1.7-5.1-1.7-7.1,0l-1.4,1.2l-1.3-1.2c-1.9-1.7-5.1-1.7-7.1,0c-2.2,2-2.2,5.2,0,7.1
		l8.3,7.6l8.4-7.6C-1385.5,832.1-1385.5,828.9-1387.6,826.9z"/>
</g>
</svg>
